<?xml version="1.0" encoding="utf-8"?>
<!-- Generator: Adobe Illustrator 22.0.0, SVG Export Plug-In . SVG Version: 6.00 Build 0)  -->
<svg version="1.1" id="Layer_1" xmlns="http://www.w3.org/2000/svg" xmlns:xlink="http://www.w3.org/1999/xlink" x="0px" y="0px"
	 viewBox="0 0 142 142" style="enable-background:new 0 0 142 142;" xml:space="preserve">
<style type="text/css">
	.st0{fill:#6BAB00;}
</style>
<path class="st0" d="M138.4,46.5c0-11.2-4.3-21.6-12.2-29.5c-7.9-7.9-18.4-12.2-29.5-12.2C85.5,4.8,75,9.1,67.1,17
	C56.3,27.9,52.3,43.5,56.6,58.2L5.2,109.5c-0.6,0.6-0.9,1.4-0.9,2.3v24c0,1.8,1.4,3.2,3.2,3.2h24c0.8,0,1.7-0.3,2.3-0.9l7.9-7.9
	c0.6-0.6,0.9-1.4,0.9-2.3v-6.1h6.1c0.8,0,1.7-0.3,2.3-0.9l9.7-9.7c0.6-0.6,0.9-1.4,0.9-2.3v-6.1h6.1c0.8,0,1.7-0.3,2.3-0.9L85,86.7
	c3.8,1.1,7.7,1.6,11.6,1.6c0,0,0,0,0,0c11.2,0,21.6-4.3,29.5-12.2C134.1,68.2,138.4,57.7,138.4,46.5z M96.7,81.9
	c-3.9,0-7.8-0.6-11.5-1.9c-1.2-0.4-2.4-0.1-3.3,0.8L66.3,96.3h-8c-1.8,0-3.2,1.4-3.2,3.2v8l-7.8,7.8h-8c-1.8,0-3.2,1.4-3.2,3.2v8
	l-6,6H15.2l11.6-11.6c1.2-1.2,1.2-3.3,0-4.5c-1.2-1.2-3.3-1.2-4.5,0L10.7,128v-14.9l51.8-51.8c0.9-0.9,1.2-2.1,0.8-3.3
	c-4.4-12.9-1.2-26.9,8.5-36.5c6.7-6.7,15.6-10.4,25-10.4c9.5,0,18.3,3.7,25,10.4c6.7,6.7,10.4,15.6,10.4,25c0,9.5-3.7,18.3-10.4,25
	C115,78.2,106.1,81.9,96.7,81.9z"/>
<path class="st0" d="M106.4,23.3c-3.6,0-7,1.4-9.6,4c-5.3,5.3-5.3,13.9,0,19.2c2.6,2.6,6,4,9.6,4s7-1.4,9.6-4c2.6-2.6,4-6,4-9.6
	c0-3.6-1.4-7-4-9.6C113.4,24.7,110,23.3,106.4,23.3z M111.5,41.9c-1.4,1.4-3.2,2.1-5.1,2.1s-3.7-0.7-5.1-2.1
	c-2.8-2.8-2.8-7.4,0-10.1c1.4-1.4,3.2-2.1,5.1-2.1s3.7,0.7,5.1,2.1c1.4,1.4,2.1,3.2,2.1,5.1C113.6,38.7,112.8,40.5,111.5,41.9z"/>
<path class="st0" d="M65.7,73l-5.5,5.5c-1.2,1.2-1.2,3.3,0,4.5c0.6,0.6,1.4,0.9,2.3,0.9c0.8,0,1.6-0.3,2.3-0.9l5.5-5.5
	c1.2-1.2,1.2-3.3,0-4.5C69,71.7,67,71.7,65.7,73z"/>
</svg>
