<?xml version="1.0" encoding="utf-8"?>
<!-- Generator: Adobe Illustrator 22.0.0, SVG Export Plug-In . SVG Version: 6.00 Build 0)  -->
<svg version="1.1" id="Layer_1" xmlns="http://www.w3.org/2000/svg" xmlns:xlink="http://www.w3.org/1999/xlink" x="0px" y="0px"
	 viewBox="0 0 142 142" style="enable-background:new 0 0 142 142;" xml:space="preserve">
<style type="text/css">
	.st0{fill:#6BAB00;}
</style>
<g>
	<path class="st0" d="M139.6,94L96.8,74.2c-0.9-0.4-1.8-0.4-2.7,0L51.3,94c-1.6,0.7-2.3,2.6-1.6,4.2c0.5,1.2,1.7,1.9,2.9,1.9
		c0.4,0,0.9-0.1,1.3-0.3l41.5-19.2L137,99.8c1.6,0.7,3.5,0,4.2-1.6C141.9,96.7,141.2,94.8,139.6,94z"/>
	<path class="st0" d="M127.4,106.1c-1.8,0-3.2,1.4-3.2,3.2v25.9h-15.5v-18.7c0-1.8-1.4-3.2-3.2-3.2H85.4c-1.8,0-3.2,1.4-3.2,3.2
		v18.7H66.7v-25.9c0-1.8-1.4-3.2-3.2-3.2c-1.8,0-3.2,1.4-3.2,3.2v29.1c0,1.8,1.4,3.2,3.2,3.2h63.9c1.8,0,3.2-1.4,3.2-3.2v-29.1
		C130.6,107.6,129.2,106.1,127.4,106.1z M88.6,135.2v-15.5h13.8v15.5H88.6z"/>
	<path class="st0" d="M49.3,135.2H6.6V28.6h76.9v36.8c0,1.8,1.4,3.2,3.2,3.2s3.2-1.4,3.2-3.2v-40c0-1.8-1.4-3.2-3.2-3.2H73.3v-8.8
		c0-1.3-0.8-2.5-2-3L46.2,0.5c-0.8-0.3-1.6-0.3-2.4,0l-25.1,9.9c-1.2,0.5-2,1.7-2,3v8.8H3.4c-1.8,0-3.2,1.4-3.2,3.2v112.9
		c0,1.8,1.4,3.2,3.2,3.2h45.9c1.8,0,3.2-1.4,3.2-3.2C52.5,136.6,51.1,135.2,49.3,135.2z M23.2,15.6l21.9-8.7l21.9,8.7v6.6H23.2V15.6
		z"/>
	<path class="st0" d="M35.5,39.7h-14c-1.8,0-3.2,1.4-3.2,3.2c0,1.8,1.4,3.2,3.2,3.2h14c1.8,0,3.2-1.4,3.2-3.2
		C38.7,41.1,37.2,39.7,35.5,39.7z"/>
	<path class="st0" d="M35.5,55.3h-14c-1.8,0-3.2,1.4-3.2,3.2c0,1.8,1.4,3.2,3.2,3.2h14c1.8,0,3.2-1.4,3.2-3.2
		C38.7,56.7,37.2,55.3,35.5,55.3z"/>
	<path class="st0" d="M35.5,70.9h-14c-1.8,0-3.2,1.4-3.2,3.2c0,1.8,1.4,3.2,3.2,3.2h14c1.8,0,3.2-1.4,3.2-3.2
		C38.7,72.3,37.2,70.9,35.5,70.9z"/>
	<path class="st0" d="M35.5,86.5h-14c-1.8,0-3.2,1.4-3.2,3.2c0,1.8,1.4,3.2,3.2,3.2h14c1.8,0,3.2-1.4,3.2-3.2
		C38.7,88,37.2,86.5,35.5,86.5z"/>
	<path class="st0" d="M35.5,102.1h-14c-1.8,0-3.2,1.4-3.2,3.2c0,1.8,1.4,3.2,3.2,3.2h14c1.8,0,3.2-1.4,3.2-3.2
		C38.7,103.6,37.2,102.1,35.5,102.1z"/>
	<path class="st0" d="M35.5,117.8h-14c-1.8,0-3.2,1.4-3.2,3.2c0,1.8,1.4,3.2,3.2,3.2h14c1.8,0,3.2-1.4,3.2-3.2
		C38.7,119.2,37.2,117.8,35.5,117.8z"/>
	<path class="st0" d="M68.7,39.7h-14c-1.8,0-3.2,1.4-3.2,3.2c0,1.8,1.4,3.2,3.2,3.2h14c1.8,0,3.2-1.4,3.2-3.2
		C71.9,41.1,70.5,39.7,68.7,39.7z"/>
	<path class="st0" d="M68.7,55.3h-14c-1.8,0-3.2,1.4-3.2,3.2c0,1.8,1.4,3.2,3.2,3.2h14c1.8,0,3.2-1.4,3.2-3.2
		C71.9,56.7,70.5,55.3,68.7,55.3z"/>
	<path class="st0" d="M68.7,70.9h-14c-1.8,0-3.2,1.4-3.2,3.2c0,1.8,1.4,3.2,3.2,3.2h14c1.8,0,3.2-1.4,3.2-3.2
		C71.9,72.3,70.5,70.9,68.7,70.9z"/>
</g>
</svg>
