<?xml version="1.0" encoding="utf-8"?>
<!-- Generator: Adobe Illustrator 22.0.0, SVG Export Plug-In . SVG Version: 6.00 Build 0)  -->
<svg version="1.1" id="Layer_1" xmlns="http://www.w3.org/2000/svg" xmlns:xlink="http://www.w3.org/1999/xlink" x="0px" y="0px"
	 viewBox="0 0 135 135" style="enable-background:new 0 0 135 135;" xml:space="preserve">
<style type="text/css">
	.st0{fill:#6BAB00;}
</style>
<g>
	<path class="st0" d="M117.4,0.8H17.9C8.4,0.8,0.6,8.6,0.6,18.1v99.5c0,9.6,7.8,17.3,17.3,17.3h99.5c9.5,0,17.3-7.8,17.3-17.3V18.1
		C134.8,8.6,127,0.8,117.4,0.8z M128.4,117.7c0,6-4.9,10.9-10.9,10.9H17.9c-6,0-10.9-4.9-10.9-10.9V18.1c0-6,4.9-10.9,10.9-10.9
		h99.5c6,0,10.9,4.9,10.9,10.9V117.7z"/>
	<path class="st0" d="M118.5,39.1c1.8,0,3.2-1.4,3.2-3.2s-1.4-3.2-3.2-3.2h-15.7V17.1c0-1.8-1.4-3.2-3.2-3.2c-1.8,0-3.2,1.4-3.2,3.2
		v15.7H70.9V17.1c0-1.8-1.4-3.2-3.2-3.2c-1.8,0-3.2,1.4-3.2,3.2v15.7H38.9V17.1c0-1.8-1.4-3.2-3.2-3.2c-1.8,0-3.2,1.4-3.2,3.2v15.7
		H16.8c-1.8,0-3.2,1.4-3.2,3.2s1.4,3.2,3.2,3.2h47.6v57.5H53.6c-1.8,0-3.2,1.4-3.2,3.2c0,1.8,1.4,3.2,3.2,3.2h10.9v15.7
		c0,1.8,1.4,3.2,3.2,3.2c1.8,0,3.2-1.4,3.2-3.2V103h25.6v15.7c0,1.8,1.4,3.2,3.2,3.2c1.8,0,3.2-1.4,3.2-3.2V103h15.7
		c1.8,0,3.2-1.4,3.2-3.2c0-1.8-1.4-3.2-3.2-3.2h-15.7V71.1h15.7c1.8,0,3.2-1.4,3.2-3.2c0-1.8-1.4-3.2-3.2-3.2h-15.7V39.1H118.5z
		 M96.4,96.6H70.9V71.1h25.6V96.6z M96.4,64.7H70.9V39.1h25.6V64.7z"/>
	<path class="st0" d="M35.7,48C24.3,48,15,57.3,15,68.8c0,10.5,16.4,30.8,18.3,33.1c0.6,0.7,1.5,1.2,2.5,1.2c1,0,1.9-0.4,2.5-1.2
		c1.9-2.3,18.3-22.5,18.3-33.1C56.5,57.3,47.2,48,35.7,48z M35.7,94.7c-6.4-8.2-14.4-20.4-14.4-25.9c0-7.9,6.4-14.4,14.4-14.4
		c7.9,0,14.4,6.5,14.4,14.4C50.1,74.3,42.1,86.5,35.7,94.7z"/>
	<path class="st0" d="M35.7,62.4c-3.5,0-6.4,2.9-6.4,6.4c0,3.5,2.9,6.4,6.4,6.4c3.5,0,6.4-2.9,6.4-6.4
		C42.1,65.3,39.3,62.4,35.7,62.4z"/>
</g>
</svg>
