<?xml version="1.0" encoding="utf-8"?>
<!-- Generator: Adobe Illustrator 22.0.0, SVG Export Plug-In . SVG Version: 6.00 Build 0)  -->
<svg version="1.1" id="Layer_1" xmlns="http://www.w3.org/2000/svg" xmlns:xlink="http://www.w3.org/1999/xlink" x="0px" y="0px"
	 viewBox="0 0 64 64" style="enable-background:new 0 0 64 64;" xml:space="preserve">
<style type="text/css">
	.st0{fill:none;stroke:#6BAB00;stroke-width:2;stroke-linecap:round;stroke-linejoin:round;stroke-miterlimit:10;}
</style>
<g id="phone_call">
	<g>
		<path class="st0" d="M15.6,48.5c-2.6-2.6-5.1-5.6-7.3-8.6C5.6,36.3,3,32.3,1.8,28c-1-3.4-1.1-7.2,0.2-10.6c1.3-3.5,4.9-8,9.1-7.6
			c3.6,0.4,6.7,3.9,8.2,6.9c0.7,1.4,1.2,3.1,0.7,4.6c-0.7,2-2.9,3.1-4.2,4.8c-1.6,2.2-1.1,5.1,0.3,7.3c2.3,3.8,4.4,6.2,6.4,8.2
			c1.9,1.9,4.3,4,8.2,6.4c2.2,1.4,5.1,1.8,7.3,0.3c1.8-1.2,2.8-3.5,4.8-4.2c1.5-0.5,3.2,0,4.6,0.7c3.1,1.5,6.5,4.6,6.9,8.2
			c0.4,4.2-4.1,7.8-7.6,9.1c-3.4,1.2-7.1,1.1-10.6,0.2c-4.3-1.2-8.3-3.9-11.9-6.5C21.1,53.6,18.2,51.1,15.6,48.5z"/>
		<line class="st0" x1="14" y1="22" x2="16" y2="24"/>
		<line class="st0" x1="40" y1="48" x2="42" y2="50"/>
	</g>
	<g>
		<path class="st0" d="M24.9,3.4C28.3,1.9,32,1,36,1c14.9,0,27,12.1,27,27c0,4-0.9,7.7-2.4,11.1"/>
		<path class="st0" d="M52.3,30.8c0.2-0.9,0.2-1.8,0.2-2.8c0-9.1-7.4-16.5-16.5-16.5c-0.9,0-1.9,0.1-2.8,0.2"/>
	</g>
</g>
</svg>
