<?xml version="1.0" encoding="utf-8"?>
<!-- Generator: Adobe Illustrator 22.0.0, SVG Export Plug-In . SVG Version: 6.00 Build 0)  -->
<svg version="1.1" id="Layer_1" xmlns="http://www.w3.org/2000/svg" xmlns:xlink="http://www.w3.org/1999/xlink" x="0px" y="0px"
	 viewBox="0 0 64 64" style="enable-background:new 0 0 64 64;" xml:space="preserve">
<style type="text/css">
	.st0{fill:none;stroke:#6BAB00;stroke-width:2;stroke-linecap:square;stroke-linejoin:round;stroke-miterlimit:10;}
	.st1{fill:none;stroke:#6BAB00;stroke-width:2;stroke-linecap:round;stroke-linejoin:round;stroke-miterlimit:10;}
</style>
<g id="sms">
	<g>
		<path class="st0" d="M52,48v11c0,2.2-1.8,4-4,4H16c-2.2,0-4-1.8-4-4V38"/>
		<path class="st0" d="M12,20V5c0-2.2,1.8-4,4-4h32c2.2,0,4,1.8,4,4v4"/>
		<polyline class="st0" points="46,9 46,7 18,7 18,14 		"/>
		<polyline class="st0" points="18,44 18,51 46,51 46,48 		"/>
		<line class="st1" x1="28" y1="57" x2="36" y2="57"/>
	</g>
	<g>
		<line class="st1" x1="1" y1="26" x2="5" y2="26"/>
		<line class="st1" x1="11" y1="26" x2="20" y2="26"/>
		<line class="st1" x1="4" y1="32" x2="8" y2="32"/>
		<line class="st1" x1="14" y1="32" x2="23" y2="32"/>
	</g>
	<g id="mail_2_">
		<g>
			<line class="st1" x1="31" y1="38" x2="41" y2="30"/>
			<line class="st1" x1="49" y1="30" x2="59" y2="38"/>
		</g>
		<path class="st1" d="M31,19l11,11c1.8,1.5,4.2,1.5,6,0l11-11"/>
		<path class="st1" d="M61.1,42H28.9c-1.1,0-1.9-0.9-1.9-1.9V16.9c0-1.1,0.9-1.9,1.9-1.9h32.2c1.1,0,1.9,0.9,1.9,1.9v23.2
			C63,41.1,62.1,42,61.1,42z"/>
	</g>
</g>
</svg>
