<?xml version="1.0" encoding="utf-8"?>
<!-- Generator: Adobe Illustrator 22.0.0, SVG Export Plug-In . SVG Version: 6.00 Build 0)  -->
<svg version="1.1" id="Layer_1" xmlns="http://www.w3.org/2000/svg" xmlns:xlink="http://www.w3.org/1999/xlink" x="0px" y="0px"
	 viewBox="0 0 51 44" style="enable-background:new 0 0 51 44;" xml:space="preserve">
<style type="text/css">
	.st0{fill:none;stroke:#888888;stroke-width:2;stroke-linejoin:round;stroke-miterlimit:10;}
	.st1{fill:none;stroke:#888888;stroke-width:2;stroke-miterlimit:10;}
</style>
<g>
	<path class="st0" d="M3,36c0-2.6,2-5,5-5V2C5,2,3,4.4,3,7V36z"/>
	<path class="st0" d="M8,8h41v33H8c-2.8,0-5-2.3-5-5"/>
	<polyline class="st1" points="26,21 26,29 15,29 15,14 26,14 26,18 	"/>
	<polyline class="st1" points="26,14 42,14 42,24 38,24 	"/>
	<polyline class="st1" points="34,24 38,24 38,35 22,35 22,29 	"/>
	<line class="st1" x1="31" y1="24" x2="26" y2="24"/>
</g>
</svg>
