<?xml version="1.0" encoding="utf-8"?>
<!-- Generator: Adobe Illustrator 22.0.0, SVG Export Plug-In . SVG Version: 6.00 Build 0)  -->
<svg version="1.1" id="Layer_1" xmlns="http://www.w3.org/2000/svg" xmlns:xlink="http://www.w3.org/1999/xlink" x="0px" y="0px"
	 viewBox="0 0 438.9 438.9" style="enable-background:new 0 0 438.9 438.9;" xml:space="preserve">
<style type="text/css">
	.st0{fill:#FFFFFF;}
</style>
<path class="st0" d="M372.9,376.2c42.6-41.7,66-97.3,66-156.7c0-59.4-23.4-115.1-66-156.7C331.6,22.3,277.1,0,219.4,0
	C161.8,0,107.3,22.3,66,62.7C23.4,104.4,0,160,0,219.4c0,59.4,23.4,115.1,66,156.7c15,14.6,31.8,27,50.1,36.8c0,0,0,0,0,0
	c0.1,0,0.1,0,0.2,0.1c0.1,0,0.1,0.1,0.2,0.1c2.2,1.2,4.5,2.3,6.7,3.4c3.9,1.9,7.9,3.7,11.7,5.3c0,0,0.1,0,0.1,0c0,0,0,0,0,0h0
	c0,0,0,0,0,0c0.4,0.2,1,0.4,1.8,0.7l0.5,0.2c0,0,0,0,0,0c2.6,1.1,5.1,2,7.5,2.9c0.3,0.1,0.5,0.2,0.8,0.3c3.2,1.2,6.3,2.2,9.2,3.1
	c1.1,0.3,2.3,0.6,3.5,0.9l1.9,0.5h0l0.1,0c5,1.4,10,2.8,15.1,3.8c0.1,0,0.2,0,0.3,0.1c1,0.2,2,0.3,2.9,0.5c1.4,0.2,2.8,0.5,4.2,0.7
	l0.5,0.1l5.7,0.9c2.7,0.5,5.4,0.9,8.2,1.2c7.4,0.7,14.9,1.1,22.2,1.1c7.3,0,14.8-0.4,22.2-1.1c0,0,0,0,0,0c2.7-0.3,5.4-0.7,8-1.2
	l6.5-1c2.4-0.3,4.7-0.7,7.1-1.1c5.2-1.1,10.3-2.5,15.4-3.9l1.9-0.5c1.2-0.3,2.3-0.6,3.4-0.9c2.6-0.8,5.2-1.7,8-2.7
	c0.1-0.1,0.3-0.1,0.4-0.2c3-1.1,6.2-2.3,9.8-3.7c0.6-0.2,1.1-0.4,1.7-0.6c0,0,0,0,0,0c0,0,0,0,0,0c3.7-1.5,7.3-3.2,11-5
	c0.3-0.1,0.6-0.3,0.9-0.4c1.6-0.8,3.2-1.6,4.8-2.5c0.7-0.4,1.4-0.7,2.1-1.1c2-1.1,4-2.3,6-3.5c11.5-6.6,22.5-14.2,32.6-22.8
	C365.3,383.3,369.1,379.8,372.9,376.2z M347.2,374.6c-2.1,1.8-4.3,3.5-6.5,5.2c-1.4,1.1-2.9,2.2-4.3,3.2c-2.1,1.5-4.3,3-6.6,4.5
	c-1.5,1-3,2-4.6,3c-2.7,1.7-5.4,3.2-8.1,4.7c-1.1,0.6-2.1,1.3-3.2,1.9c0,0,0,0,0,0c-0.3,0.2-0.6,0.3-0.9,0.4
	c-2.1,1.1-4.1,2.1-6.3,3.1c-2,1-4.1,1.9-6.1,2.8c-1.4,0.6-2.8,1.3-4.3,1.9l-1.4,0.5c0,0,0,0,0,0l0,0c-6.1,2.5-11.2,4.3-16.1,5.8
	c0,0,0,0,0,0v0c-0.8,0.2-1.5,0.4-2.3,0.6c-0.8,0.2-1.5,0.4-2.3,0.6c0.3-0.4,0.7-0.8,1-1.1c1-1,2-2.1,2.9-3.2
	c1.1-1.2,2.1-2.4,3.1-3.7c0.9-1.1,1.9-2.3,2.8-3.5c1-1.3,2-2.7,3.1-4.1c0.9-1.2,1.8-2.5,2.6-3.8c1-1.5,2-3,3-4.6
	c0.8-1.3,1.6-2.6,2.4-4c1-1.7,1.9-3.4,2.9-5.1c0.8-1.4,1.5-2.8,2.3-4.2c1-1.8,1.9-3.7,2.8-5.6c0.7-1.4,1.4-2.9,2.1-4.3
	c0.9-2,1.8-4.1,2.7-6.2c0.6-1.5,1.2-2.9,1.8-4.4c0.9-2.2,1.8-4.6,2.6-6.9c0.5-1.5,1.1-2.9,1.6-4.4c0.1-0.3,0.2-0.6,0.3-0.9
	c1.3,0.7,2.6,1.3,3.9,2.1c1.2,0.7,2.4,1.4,3.6,2.1c4.2,2.5,8.3,5,12.3,7.8c0.1,0.1,0.3,0.2,0.4,0.3c4.1,2.8,8,5.9,11.9,9
	c1.1,0.9,2.1,1.8,3.2,2.6c1.2,1,2.3,2,3.4,3.1c-0.6,0.6-1.3,1.2-1.9,1.8C349.7,372.5,348.5,373.5,347.2,374.6z M109.8,387.9
	c-2.5-1.6-5-3.3-7.4-5.1c-1.3-1-2.6-1.9-3.9-2.9c-2.3-1.7-4.5-3.5-6.7-5.3c-1.3-1-2.5-2.1-3.8-3.1c-0.6-0.6-1.2-1.2-1.9-1.7
	c1.1-1,2.2-2.1,3.4-3c1.1-0.9,2.1-1.8,3.2-2.7c3.8-3.1,7.8-6.1,11.8-8.9c0.2-0.1,0.4-0.2,0.5-0.3c4-2.7,8.1-5.3,12.2-7.7
	c1.2-0.7,2.4-1.4,3.6-2.1c1.3-0.7,2.6-1.4,3.9-2.1c0.1,0.3,0.2,0.6,0.3,0.9c0.5,1.5,1.1,3,1.7,4.5c0.8,2.2,1.7,4.5,2.6,6.7
	c0.6,1.6,1.3,3.1,2,4.7c0.8,2,1.7,4,2.6,5.9c0.7,1.6,1.5,3.1,2.2,4.6c0.9,1.8,1.7,3.6,2.6,5.3c0.8,1.5,1.6,3,2.4,4.4
	c0.9,1.7,1.8,3.3,2.8,4.9c0.8,1.4,1.7,2.8,2.5,4.1c1,1.5,1.9,3,2.9,4.5c0.9,1.3,1.8,2.6,2.7,3.9c1,1.4,2,2.7,3,4.1
	c0.9,1.2,1.9,2.4,2.8,3.6c1,1.3,2.1,2.5,3.1,3.7c1,1.1,1.9,2.2,2.9,3.2c0.3,0.4,0.7,0.8,1,1.1c-0.8-0.2-1.5-0.4-2.3-0.6
	c-0.8-0.2-1.5-0.4-2.3-0.6c0,0,0,0,0,0c-2.7-0.8-5.5-1.8-8.4-2.9c-2.4-0.9-4.9-1.8-7.7-3l-2.1-0.8c0,0,0,0,0,0
	c-3.3-1.4-6.6-2.9-9.8-4.5c-2.1-1-4.3-2.1-6.5-3.3c-0.2-0.1-0.4-0.2-0.6-0.3c0,0,0,0,0,0c0,0,0,0,0,0c-0.1,0-0.1-0.1-0.2-0.1
	c0,0-0.1,0-0.1-0.1c-3.9-2.1-7.7-4.3-11.4-6.6C112.2,389.5,111,388.7,109.8,387.9z M143.2,98.7c0.7-1.9,1.4-3.7,2.1-5.5
	c0.5-1.3,1-2.6,1.6-3.9c0.7-1.8,1.5-3.5,2.2-5.2c0.5-1.2,1.1-2.4,1.6-3.6c0.8-1.8,1.7-3.5,2.5-5.2c0.5-1,1-2.1,1.5-3.1
	c1.1-2.2,2.3-4.3,3.5-6.3c0.3-0.5,0.5-1,0.8-1.4c1.4-2.4,2.9-4.8,4.4-7.1c0.5-0.8,1.1-1.6,1.6-2.4c1-1.5,2-2.9,3-4.3
	c0.6-0.8,1.3-1.7,1.9-2.5c1-1.2,1.9-2.5,2.9-3.6c0.7-0.8,1.3-1.6,2-2.3c1-1.1,2-2.2,3-3.2c0.7-0.7,1.3-1.4,2-2.1
	c1.1-1.1,2.2-2.1,3.3-3c0.6-0.5,1.2-1.1,1.8-1.6c1.5-1.2,2.9-2.3,4.4-3.4c0.3-0.2,0.5-0.4,0.8-0.6c1.8-1.2,3.5-2.3,5.3-3.3
	c0.5-0.3,1-0.5,1.6-0.8c1.3-0.7,2.6-1.3,3.9-1.9c0.7-0.3,1.3-0.5,2-0.8c1.2-0.5,2.4-0.9,3.6-1.2c0.7-0.2,1.4-0.4,2.1-0.6
	c0.5-0.1,1.1-0.2,1.6-0.3v100.5c-0.2,0-0.5,0-0.7,0c-5.1-0.3-10.3-0.7-15.4-1.4c-1.1-0.1-2.2-0.3-3.4-0.5
	c-5.2-0.8-10.3-1.6-15.4-2.8c-0.4-0.1-0.7-0.2-1.1-0.3c-4.8-1.1-9.6-2.5-14.4-4c-1-0.3-2.1-0.6-3.1-1c-4.9-1.6-9.7-3.4-14.5-5.4
	c-0.3-0.1-0.7-0.3-1-0.5c0.2-0.5,0.3-0.9,0.5-1.4C142.3,101.3,142.8,100,143.2,98.7z M232.3,20.3c1.2,0.4,2.4,0.8,3.6,1.2
	c0.7,0.3,1.3,0.5,2,0.8c1.3,0.6,2.6,1.2,3.9,1.9c0.5,0.3,1.1,0.5,1.6,0.8c1.8,1,3.6,2.1,5.3,3.3c0.3,0.2,0.6,0.4,0.8,0.6
	c1.5,1.1,2.9,2.2,4.4,3.4c0.6,0.5,1.2,1.1,1.8,1.6c1.1,1,2.2,2,3.3,3c0.7,0.7,1.3,1.4,2,2.1c1,1,2,2.1,3,3.2c0.7,0.8,1.4,1.5,2,2.3
	c1,1.2,1.9,2.4,2.9,3.6c0.6,0.8,1.3,1.6,1.9,2.5c1,1.4,2,2.8,3,4.3c0.5,0.8,1.1,1.5,1.6,2.3c1.5,2.3,3,4.6,4.4,7.1
	c0.3,0.5,0.5,1,0.8,1.4c1.2,2,2.3,4.1,3.4,6.3c0.5,1,1,2.1,1.6,3.1c0.8,1.7,1.7,3.4,2.5,5.1c0.6,1.2,1.1,2.4,1.6,3.6
	c0.8,1.7,1.5,3.4,2.2,5.2c0.5,1.3,1.1,2.6,1.6,3.9c0.7,1.8,1.4,3.6,2.1,5.5c0.5,1.3,1,2.7,1.5,4c0.2,0.5,0.3,0.9,0.5,1.4
	c-0.3,0.1-0.7,0.3-1,0.4c-4.8,2-9.6,3.8-14.5,5.5c-1,0.3-2,0.6-3.1,1c-4.8,1.5-9.6,2.9-14.5,4c-0.3,0.1-0.7,0.2-1,0.3
	c-5.1,1.2-10.2,2.1-15.4,2.8c-1.1,0.2-2.2,0.3-3.4,0.5c-5.1,0.7-10.2,1.1-15.4,1.4c-0.2,0-0.5,0-0.7,0V19.4c0.5,0.1,1.1,0.2,1.6,0.3
	C230.9,19.9,231.6,20.1,232.3,20.3z M295.6,340.2c-0.7,1.8-1.4,3.7-2.1,5.4c-0.5,1.3-1,2.6-1.6,3.9c-0.7,1.8-1.5,3.5-2.2,5.2
	c-0.5,1.2-1.1,2.4-1.6,3.6c-0.8,1.8-1.6,3.5-2.5,5.2c-0.5,1-1,2.1-1.6,3.1c-1.1,2.2-2.3,4.2-3.4,6.3c-0.3,0.5-0.5,1-0.8,1.4
	c-1.4,2.5-2.9,4.8-4.4,7.1c-0.5,0.8-1.1,1.6-1.6,2.3c-1,1.5-2,2.9-3,4.3c-0.6,0.8-1.3,1.7-1.9,2.5c-1,1.2-1.9,2.5-2.9,3.6
	c-0.7,0.8-1.3,1.6-2,2.3c-1,1.1-2,2.2-3,3.3c-0.7,0.7-1.3,1.4-2,2c-1.1,1.1-2.2,2.1-3.3,3.1c-0.6,0.5-1.2,1.1-1.8,1.6
	c-1.5,1.2-2.9,2.3-4.4,3.4c-0.3,0.2-0.5,0.4-0.8,0.6c-1.8,1.2-3.5,2.3-5.3,3.3c-0.5,0.3-1,0.5-1.5,0.8c-1.3,0.7-2.6,1.3-3.9,1.9
	c-0.7,0.3-1.3,0.5-2,0.8c-1.2,0.5-2.4,0.9-3.6,1.2c-0.7,0.2-1.4,0.4-2.1,0.6c-0.5,0.1-1.1,0.2-1.6,0.3V318.9c0.2,0,0.5,0,0.8,0
	c5.1,0.3,10.3,0.7,15.3,1.4c1.1,0.1,2.3,0.3,3.4,0.5c5.2,0.8,10.3,1.6,15.4,2.8c0.3,0.1,0.7,0.2,1,0.3c4.9,1.1,9.7,2.5,14.5,4
	c1,0.3,2,0.6,3,1c4.9,1.6,9.7,3.4,14.5,5.5c0.3,0.1,0.7,0.3,1,0.4c-0.2,0.5-0.3,0.9-0.5,1.4C296.6,337.5,296.1,338.9,295.6,340.2z
	 M208.6,419.2c-0.7-0.2-1.4-0.4-2.1-0.6c-1.2-0.4-2.4-0.8-3.6-1.2c-0.7-0.2-1.3-0.5-2-0.8c-1.3-0.6-2.6-1.2-3.9-1.9
	c-0.5-0.3-1-0.5-1.5-0.8c-1.8-1-3.6-2.1-5.3-3.3c-0.3-0.2-0.5-0.4-0.8-0.6c-1.5-1.1-3-2.2-4.4-3.4c-0.6-0.5-1.2-1.1-1.8-1.6
	c-1.1-1-2.2-2-3.3-3.1c-0.7-0.7-1.3-1.3-2-2c-1-1.1-2-2.1-3-3.3c-0.7-0.8-1.3-1.5-2-2.3c-1-1.2-2-2.4-2.9-3.6
	c-0.6-0.8-1.3-1.6-1.9-2.5c-1-1.4-2-2.8-3-4.3c-0.5-0.8-1.1-1.5-1.6-2.4c-1.5-2.3-3-4.6-4.4-7.1c-0.3-0.5-0.5-1-0.8-1.4
	c-1.2-2.1-2.3-4.1-3.5-6.3c-0.5-1-1-2.1-1.5-3.1c-0.8-1.7-1.7-3.4-2.5-5.2c-0.6-1.2-1.1-2.4-1.6-3.6c-0.8-1.7-1.5-3.4-2.2-5.2
	c-0.5-1.3-1.1-2.6-1.6-3.9c-0.7-1.8-1.4-3.6-2.1-5.5c-0.5-1.3-1-2.7-1.4-4c-0.2-0.5-0.3-0.9-0.5-1.4c0.3-0.1,0.7-0.3,1-0.5
	c4.8-2,9.6-3.8,14.5-5.4c1-0.3,2.1-0.7,3.1-1c4.8-1.5,9.6-2.9,14.4-4c0.4-0.1,0.7-0.2,1.1-0.3c5.1-1.2,10.2-2.1,15.4-2.8
	c1.1-0.2,2.3-0.3,3.4-0.5c5.1-0.7,10.2-1.1,15.3-1.4c0.2,0,0.5,0,0.8,0v100.6C209.7,419.4,209.2,419.3,208.6,419.2z M131.7,299.4
	c-1.5-6.9-2.7-13.9-3.8-21c-0.2-1.2-0.4-2.3-0.6-3.5c-1.2-8.3-2-16.8-2.7-25.4c-0.2-2.6-0.3-5.2-0.4-7.8c-0.2-4.3-0.4-8.7-0.5-13.1
	h86.5v72c-0.4,0-0.7,0.1-1.1,0.1c-5.5,0.3-11,0.7-16.5,1.4c-1.2,0.1-2.4,0.3-3.6,0.5c-5.2,0.7-10.5,1.6-15.6,2.8
	c-0.4,0.1-0.8,0.2-1.3,0.2c-5.5,1.2-10.9,2.7-16.3,4.4c-1.2,0.4-2.4,0.7-3.6,1.1c-5.3,1.7-10.6,3.7-15.9,5.8c-0.1,0-0.2,0.1-0.3,0.1
	c-0.9-3.3-1.8-6.6-2.6-10C132.9,304.5,132.2,302,131.7,299.4z M124.6,189.4c0.6-8.6,1.5-17,2.7-25.4c0.2-1.2,0.4-2.3,0.6-3.5
	c1.1-7.2,2.3-14.2,3.8-21.1c0.6-2.6,1.2-5.1,1.8-7.7c0.8-3.4,1.7-6.7,2.6-10c0.1,0,0.2,0.1,0.3,0.1c5.2,2.2,10.6,4.1,15.9,5.8
	c1.2,0.4,2.4,0.8,3.6,1.1c5.4,1.7,10.8,3.2,16.3,4.4c0.4,0.1,0.9,0.2,1.3,0.2c5.2,1.1,10.4,2,15.6,2.8c1.2,0.2,2.4,0.4,3.6,0.5
	c5.5,0.7,10.9,1.2,16.5,1.4c0.4,0,0.7,0.1,1.1,0.1v72h-86.5c0.1-4.4,0.2-8.8,0.5-13.1C124.3,194.6,124.4,192,124.6,189.4z
	 M246.1,136.7c1.2-0.1,2.4-0.3,3.6-0.5c5.2-0.7,10.4-1.6,15.6-2.8c0.4-0.1,0.9-0.2,1.3-0.3c5.4-1.2,10.8-2.7,16.2-4.4
	c1.3-0.4,2.5-0.8,3.8-1.2c5.3-1.7,10.5-3.6,15.7-5.7c0.1-0.1,0.2-0.1,0.4-0.1c0.9,3.3,1.8,6.6,2.6,9.9c0.6,2.6,1.3,5.1,1.8,7.8
	c1.5,6.9,2.7,13.9,3.8,21c0.2,1.2,0.4,2.3,0.6,3.5c1.2,8.3,2,16.8,2.7,25.4c0.2,2.6,0.3,5.2,0.4,7.8c0.2,4.3,0.4,8.7,0.5,13.1h-86.5
	v-72c0.4,0,0.7-0.1,1.1-0.1C235.2,137.9,240.7,137.4,246.1,136.7z M314.3,249.5c-0.6,8.6-1.5,17-2.7,25.3c-0.2,1.2-0.4,2.4-0.6,3.6
	c-1.1,7.1-2.3,14.1-3.8,21c-0.6,2.6-1.2,5.2-1.8,7.8c-0.8,3.4-1.7,6.6-2.6,9.9c-0.1-0.1-0.3-0.1-0.4-0.1c-5.2-2.1-10.4-4-15.7-5.8
	c-1.2-0.4-2.5-0.8-3.8-1.2c-5.4-1.6-10.8-3.1-16.2-4.4c-0.4-0.1-0.9-0.2-1.3-0.3c-5.2-1.1-10.4-2-15.6-2.8c-1.2-0.2-2.4-0.4-3.6-0.5
	c-5.5-0.7-11-1.2-16.5-1.4c-0.4,0-0.7-0.1-1.1-0.1v-72h86.5c-0.1,4.4-0.2,8.8-0.5,13.1C314.5,244.3,314.4,246.9,314.3,249.5z
	 M366.2,356.8c-1.4-1.3-3-2.5-4.5-3.8c-1.3-1.1-2.6-2.3-4-3.4c-3.8-3-7.6-6-11.6-8.8c-0.5-0.4-1.1-0.8-1.6-1.2
	c-4.6-3.1-9.3-6.1-14.1-8.9c-1.3-0.8-2.7-1.5-4-2.2c-2.2-1.2-4.4-2.5-6.6-3.7c0.2-0.6,0.3-1.3,0.5-1.9c1.8-6.4,3.4-13,4.8-19.7
	c0.2-1.2,0.5-2.3,0.7-3.5c1.4-7.1,2.7-14.2,3.8-21.5c0-0.1,0-0.1,0-0.2c1.1-7.3,1.9-14.8,2.5-22.3c0.1-1.2,0.2-2.5,0.3-3.7
	c0.6-7.2,0.9-14.5,1.1-21.8c0-0.6,0.1-1.2,0.1-1.8h86.8C418.2,276.7,399.2,321.6,366.2,356.8z M333.6,210.3c0-0.6-0.1-1.2-0.1-1.8
	c-0.2-7.3-0.6-14.6-1.1-21.9c-0.1-1.2-0.2-2.4-0.3-3.7c-0.7-7.5-1.5-15-2.5-22.4c0,0,0,0,0,0c-1.1-7.4-2.4-14.6-3.8-21.8
	c-0.2-1.1-0.4-2.2-0.7-3.2c-1.5-6.8-3.1-13.5-4.9-20c-0.1-0.5-0.3-1.1-0.4-1.7c2.2-1.1,4.3-2.4,6.5-3.6c1.4-0.8,2.8-1.5,4.2-2.3
	c4.8-2.8,9.5-5.8,14.1-8.9c0.5-0.4,1-0.8,1.5-1.1c4-2.8,7.9-5.8,11.7-8.9c1.3-1.1,2.6-2.2,3.9-3.3c1.5-1.3,3.1-2.5,4.5-3.8
	c33.1,35.2,52,80.2,54.2,128.3H333.6z M352.9,69.1c-1.2,1-2.3,2.1-3.5,3.2c-1,0.9-2.1,1.8-3.1,2.6c-3.8,3.1-7.8,6.1-11.9,9
	c-0.2,0.2-0.5,0.3-0.7,0.4c-3.9,2.7-7.9,5.2-12,7.6c-1.2,0.7-2.5,1.4-3.8,2.1c-1.3,0.7-2.6,1.3-3.8,2c-0.1-0.3-0.2-0.6-0.3-0.9
	c-0.6-1.6-1.1-3.1-1.7-4.6c-0.8-2.2-1.7-4.5-2.5-6.6c-0.6-1.6-1.3-3.1-2-4.7c-0.9-2-1.7-4-2.6-5.9c-0.7-1.5-1.4-3-2.2-4.5
	c-0.9-1.8-1.8-3.7-2.7-5.4c-0.8-1.5-1.5-2.9-2.3-4.3c-0.9-1.7-1.9-3.4-2.9-5c-0.8-1.4-1.6-2.7-2.5-4c-1-1.6-2-3.1-3-4.6
	c-0.9-1.3-1.7-2.5-2.6-3.7c-1-1.5-2.1-2.9-3.2-4.2c-0.9-1.2-1.8-2.3-2.7-3.4c-1.1-1.3-2.2-2.6-3.3-3.8c-0.9-1.1-1.9-2.1-2.8-3.1
	c-0.4-0.4-0.8-0.9-1.2-1.3C302.8,33.8,329.9,48.6,352.9,69.1z M164,27c-1,1-1.9,2.1-2.9,3.2c-1.1,1.2-2.1,2.4-3.1,3.7
	c-1,1.2-1.9,2.4-2.9,3.6c-1,1.3-2,2.6-2.9,4c-0.9,1.3-1.9,2.6-2.8,4c-0.9,1.4-1.9,2.8-2.8,4.3c-0.9,1.4-1.8,2.9-2.7,4.3
	c-0.9,1.5-1.8,3.1-2.7,4.7c-0.8,1.5-1.7,3-2.5,4.6c-0.9,1.7-1.7,3.4-2.6,5.2c-0.8,1.6-1.5,3.1-2.3,4.8c-0.9,1.9-1.7,3.8-2.5,5.8
	c-0.7,1.6-1.4,3.2-2,4.8c-0.9,2.1-1.7,4.4-2.5,6.6c-0.6,1.5-1.2,3-1.7,4.6c-0.1,0.3-0.2,0.6-0.3,0.9c-1.3-0.7-2.7-1.3-4-2.1
	c-1.2-0.7-2.4-1.3-3.5-2c-4.2-2.5-8.3-5-12.3-7.8c-0.1-0.1-0.3-0.2-0.5-0.3c-4.1-2.8-8-5.9-11.9-9c-1.1-0.9-2.1-1.7-3.1-2.6
	c-1.2-1-2.3-2.1-3.5-3.2C109,48.6,136,33.8,165.2,25.7C164.8,26.1,164.4,26.6,164,27z M72.7,82c1.4,1.3,3,2.5,4.4,3.7
	c1.3,1.1,2.7,2.3,4,3.4c3.7,3,7.5,5.9,11.4,8.6c0.6,0.4,1.2,0.9,1.8,1.3c4.5,3.1,9.2,6.1,14,8.9c1.4,0.8,2.8,1.5,4.1,2.3
	c2.2,1.2,4.3,2.5,6.5,3.6c-0.2,0.6-0.3,1.1-0.4,1.7c-1.8,6.5-3.4,13.2-4.9,20c-0.2,1.1-0.4,2.2-0.7,3.3c-1.4,7.1-2.8,14.3-3.8,21.7
	c0,0,0,0.1,0,0.1c-1.1,7.3-1.9,14.8-2.5,22.3c-0.1,1.2-0.2,2.5-0.3,3.7c-0.6,7.2-0.9,14.5-1.1,21.8c0,0.6-0.1,1.2-0.1,1.8H18.5
	C20.6,162.2,39.6,117.2,72.7,82z M105.2,228.6c0,0.6,0.1,1.2,0.1,1.8c0.2,7.3,0.6,14.6,1.1,21.8c0.1,1.3,0.2,2.5,0.3,3.7
	c0.7,7.5,1.5,15,2.5,22.3c0,0,0,0.1,0,0.1c1.1,7.4,2.4,14.6,3.8,21.7c0.2,1.1,0.4,2.2,0.7,3.3c1.5,6.8,3.1,13.5,4.9,20
	c0.2,0.5,0.3,1.1,0.4,1.7c-2.2,1.1-4.4,2.4-6.5,3.6c-1.4,0.8-2.8,1.5-4.2,2.3c-4.8,2.8-9.5,5.7-14,8.9c-0.6,0.4-1.2,0.9-1.8,1.3
	c-3.9,2.8-7.7,5.6-11.4,8.6c-1.4,1.1-2.7,2.3-4.1,3.4c-1.5,1.2-3,2.4-4.4,3.7c-33.1-35.2-52.1-80.2-54.2-128.3H105.2z"/>
</svg>
