<?xml version="1.0" encoding="utf-8"?>
<!-- Generator: Adobe Illustrator 22.0.0, SVG Export Plug-In . SVG Version: 6.00 Build 0)  -->
<svg version="1.1" id="Layer_1" xmlns="http://www.w3.org/2000/svg" xmlns:xlink="http://www.w3.org/1999/xlink" x="0px" y="0px"
	 viewBox="0 0 500 500" style="enable-background:new 0 0 500 500;" xml:space="preserve">
<style type="text/css">
	.st0{fill:#666666;}
</style>
<g>
	<path class="st0" d="M413.2,102.5h-12.8V73.9c0-40.7-33.2-73.9-73.9-73.9H171.3c-40.7,0-73.9,33.2-73.9,73.9v28.6H85.7
		c-40.7,0-73.9,33.2-73.9,73.9v119.2c0,40.7,33.2,73.9,73.9,73.9h11.6v93.7c0,20.3,16.6,36.9,36.9,36.9h229.1
		c20.3,0,36.9-16.6,36.9-36.9v-93.7h13c40.7,0,73.9-33.2,73.9-73.9V176.4C487.1,135.6,453.9,102.5,413.2,102.5L413.2,102.5z
		 M125.3,73.9c0-25.3,20.6-45.9,45.9-45.9h155c25.3,0,45.9,20.6,45.9,45.9v28.6H125.3V73.9z M372.2,463.3c0,4.9-4,8.9-8.9,8.9H134.2
		c-4.9,0-8.9-4-8.9-8.9V308.8h246.9V463.3z M459.1,295.6c0,25.3-20.6,45.9-45.9,45.9h-12.8v-32.7h18.4c7.8,0,14-6.2,14-14
		s-6.2-14-14-14h-342c-7.8,0-14,6.2-14,14s6.2,14,14,14h20.6v32.7H85.7c-25.3,0-45.9-20.6-45.9-45.9V176.5
		c0-25.3,20.6-45.9,45.9-45.9h327.5c25.3,0,45.9,20.6,45.9,45.9V295.6z M459.1,295.6"/>
	<path class="st0" d="M159.2,377.6h178.1c7.8,0,14-6.2,14-14s-6.2-14-14-14H159.2c-7.8,0-14,6.2-14,14S151.5,377.6,159.2,377.6
		L159.2,377.6z M159.2,377.6"/>
	<path class="st0" d="M338.5,406.8H160.2c-7.8,0-14,6.2-14,14c0,7.8,6.2,14,14,14h178.1c7.8,0,14-6.2,14-14
		C352.3,413.1,346.1,406.8,338.5,406.8L338.5,406.8z M338.5,406.8"/>
	<path class="st0" d="M412.9,157.4h-28.4c-7.8,0-14,6.2-14,14s6.2,14,14,14h28.4c7.8,0,14-6.2,14-14S420.6,157.4,412.9,157.4
		L412.9,157.4z M412.9,157.4"/>
</g>
</svg>
