<?xml version="1.0" encoding="utf-8"?>
<!-- Generator: Adobe Illustrator 22.0.0, SVG Export Plug-In . SVG Version: 6.00 Build 0)  -->
<svg version="1.1" id="Layer_1" xmlns="http://www.w3.org/2000/svg" xmlns:xlink="http://www.w3.org/1999/xlink" x="0px" y="0px"
	 viewBox="0 0 49 50" style="enable-background:new 0 0 49 50;" xml:space="preserve">
<style type="text/css">
	.st0{fill:none;stroke:#888888;stroke-width:2;stroke-linejoin:round;stroke-miterlimit:10;}
	.st1{fill:none;stroke:#888888;stroke-width:2;stroke-miterlimit:10;}
</style>
<g>
	<path class="st0" d="M17,40c0.4-0.4,0.8-1,2-1c1.2,0,12.8,0,14,0c1.1,0,7.2-6.1,8-7c0.7-0.8,4.1-5.8,5-8c-0.6-0.8-2.1-1.4-4-1
		c-1.8,0.4-2.8,1.7-4,4l-4.6,2.4"/>
	<path class="st0" d="M23,33c0,0,7,0,8,0c4,0,4-5,0-5c-1,0-2.5,0-5.3,0c-0.8,0-2.4-2-3.7-2c-0.6,0-3.6,0-5,0c-1.4,0-3,1.1-4,2
		c-1.5,1.5-4,4-4,4"/>
	<rect x="7" y="30" transform="matrix(0.7071 -0.7071 0.7071 0.7071 -24.1482 18.701)" class="st0" width="7.1" height="17"/>
	<line class="st0" x1="7" y1="35" x2="9" y2="37"/>
	<line class="st1" x1="38" y1="12" x2="38" y2="26"/>
	<line class="st1" x1="18" y1="26" x2="18" y2="12"/>
	<polyline class="st1" points="42,16 28,2 14,16 	"/>
	<line class="st1" x1="21" y1="4" x2="21" y2="9"/>
	<polyline class="st1" points="25,28 25,18 31,18 31,28 	"/>
</g>
</svg>
