<?xml version="1.0" encoding="utf-8"?>
<!-- Generator: Adobe Illustrator 22.0.0, SVG Export Plug-In . SVG Version: 6.00 Build 0)  -->
<svg version="1.1" id="Layer_1" xmlns="http://www.w3.org/2000/svg" xmlns:xlink="http://www.w3.org/1999/xlink" x="0px" y="0px"
	 viewBox="0 0 500 500" style="enable-background:new 0 0 500 500;" xml:space="preserve">
<style type="text/css">
	.st0{fill:#666666;}
</style>
<path class="st0" d="M459.4,71.1c-26.2-26.2-60.8-40.5-97.8-40.5c-37,0-71.8,14.4-97.9,40.6L250,84.9L236.1,71
	c-26.2-26.2-61.1-40.7-98-40.7c-36.9,0-71.7,14.4-97.7,40.5C14.1,96.9-0.3,131.7-0.2,168.7c0,37,14.5,71.7,40.7,97.8l199.1,199.1
	c2.8,2.8,6.5,4.2,10.1,4.2c3.6,0,7.3-1.4,10.1-4.1L459.2,267c26.2-26.2,40.6-60.9,40.6-97.9C499.9,132,485.6,97.3,459.4,71.1
	L459.4,71.1z M439.1,246.7L249.7,435.4l-189-189c-20.8-20.8-32.2-48.3-32.2-77.7c0-29.4,11.3-56.9,32.1-77.6
	C81.2,70.4,108.8,59,138.1,59c29.4,0,57,11.4,77.8,32.2l24,24c5.6,5.6,14.6,5.6,20.2,0l23.7-23.7c20.8-20.8,48.4-32.2,77.7-32.2
	c29.3,0,56.8,11.4,77.6,32.1c20.8,20.8,32.1,48.3,32.1,77.7C471.3,198.4,459.9,225.9,439.1,246.7L439.1,246.7z M439.1,246.7"/>
</svg>
