<?xml version="1.0" encoding="utf-8"?>
<!-- Generator: Adobe Illustrator 22.0.0, SVG Export Plug-In . SVG Version: 6.00 Build 0)  -->
<svg version="1.1" id="Layer_1" xmlns="http://www.w3.org/2000/svg" xmlns:xlink="http://www.w3.org/1999/xlink" x="0px" y="0px"
	 viewBox="0 0 500 500" style="enable-background:new 0 0 500 500;" xml:space="preserve">
<style type="text/css">
	.st0{fill:#666666;}
</style>
<g>
	<path class="st0" d="M396,321.9c-28.8,0-54.4,13.7-70.8,34.9L187.8,280c3.2-9.2,5-19.2,5-29.5c0-10.4-1.8-20.2-5.1-29.6L325,144.3
		c16.3,21.3,42,35.1,70.9,35.1c49.2,0,89.4-40.1,89.4-89.4S445.2,0.6,395.9,0.6c-49.3,0-89.4,40.1-89.4,89.4
		c0,10.4,1.8,20.3,5.1,29.6l-137.1,76.6c-16.3-21.4-42-35.1-70.9-35.1c-49.2,0-89.4,40.1-89.4,89.4s40.2,89.4,89.5,89.4
		c28.9,0,54.6-13.8,71-35.2l137.3,76.7c-3.3,9.3-5.2,19.4-5.2,29.8c0,49.2,40.1,89.4,89.4,89.4s89.4-40.1,89.4-89.4
		S445.3,321.9,396,321.9L396,321.9z M396,28.8c33.8,0,61.4,27.5,61.4,61.4c0,33.8-27.5,61.4-61.4,61.4c-33.8,0-61.4-27.5-61.4-61.4
		C334.6,56.3,362.2,28.8,396,28.8L396,28.8z M103.6,311.9c-33.8,0-61.4-27.5-61.4-61.4c0-33.8,27.5-61.4,61.4-61.4
		c33.8,0,61.4,27.5,61.4,61.4C165,284.4,137.3,311.9,103.6,311.9L103.6,311.9z M396,472.5c-33.8,0-61.4-27.5-61.4-61.4
		c0-33.8,27.5-61.4,61.4-61.4c33.8,0,61.4,27.5,61.4,61.4C457.3,445,429.8,472.5,396,472.5L396,472.5z M396,472.5"/>
</g>
</svg>
