<?xml version="1.0" encoding="utf-8"?>
<!-- Generator: Adobe Illustrator 22.0.0, SVG Export Plug-In . SVG Version: 6.00 Build 0)  -->
<svg version="1.1" id="Layer_1" xmlns="http://www.w3.org/2000/svg" xmlns:xlink="http://www.w3.org/1999/xlink" x="0px" y="0px"
	 viewBox="0 0 42 32" style="enable-background:new 0 0 42 32;" xml:space="preserve">
<style type="text/css">
	.st0{fill:none;stroke:#FFFFFF;stroke-width:1.44;stroke-linecap:round;stroke-linejoin:round;stroke-miterlimit:22.9256;}
</style>
<path class="st0" d="M7.2,2.4h26.9c0.9,0,1.5,0.7,1.5,1.6v17.6c0,0.9-0.7,1.6-1.5,1.6H7.2c-0.9,0-1.6-0.7-1.6-1.6V4
	C5.7,3.1,6.4,2.4,7.2,2.4L7.2,2.4z M34.7,23.2l5.1,5.8 M39.8,29c0.2,0.3-0.3,0.6-0.6,0.6 M39.2,29.6H2.1c-0.3,0-0.8-0.3-0.6-0.6
	l5.1-5.8 M8,4.9h25.3v15.7c-14.2,0-18.1,0-25.3,0V4.9L8,4.9z"/>
</svg>
