<?xml version="1.0" encoding="utf-8"?>
<!-- Generator: Adobe Illustrator 22.0.0, SVG Export Plug-In . SVG Version: 6.00 Build 0)  -->
<svg version="1.1" id="Layer_1" xmlns="http://www.w3.org/2000/svg" xmlns:xlink="http://www.w3.org/1999/xlink" x="0px" y="0px"
	 viewBox="0 0 37 35" style="enable-background:new 0 0 37 35;" xml:space="preserve">
<style type="text/css">
	.st0{fill:none;stroke:#FFFFFF;stroke-width:1.44;stroke-linecap:round;stroke-linejoin:round;stroke-miterlimit:22.9256;}
</style>
<path class="st0" d="M19,24.6l4.4-2.3c1-0.6,3.1-1.4,3.1,0.7l0.7-0.5c2.1-1.4,3.7-0.4,2.9,1.6c3.7-2.7,5,0.7,3.4,1.6l-8.2,5.2
	l-3.5,2.2c-2.5,1.6-5.7,1.6-6.6,1c-5.2-1.3-6.7-2.6-11.2-2"/>
<path class="st0" d="M1.8,22.7l5.4-2.2c1.4-0.6,2.9-0.4,3.5,0c1,0.7,1.9,1.4,2.9,2.2c4,3,4.4,2.2,9.1,2.5c1.1,0.1,1.7,1.8,0,2.4
	c-4.4,2-7.2,1.1-11.2-1"/>
<line class="st0" x1="18" y1="4.3" x2="18" y2="6.2"/>
<line class="st0" x1="18" y1="14.3" x2="18" y2="16.1"/>
<path class="st0" d="M18,1.6c4.8,0,8.7,3.9,8.7,8.7c0,4.8-3.9,8.7-8.7,8.7c-4.8,0-8.7-3.9-8.7-8.7C9.3,5.5,13.2,1.6,18,1.6L18,1.6z"
	/>
<path class="st0" d="M20.7,7.1c-0.9-0.3-1.6-0.6-2.4-0.6c-4.2-0.5-4.7,3.7-0.3,3.7c4.3,0,3.9,4.2-0.3,3.7c-0.8-0.1-1.5-0.4-2.4-0.6"
	/>
</svg>
