<?xml version="1.0" encoding="utf-8"?>
<!-- Generator: Adobe Illustrator 22.0.0, SVG Export Plug-In . SVG Version: 6.00 Build 0)  -->
<svg version="1.1" id="Layer_1" xmlns="http://www.w3.org/2000/svg" xmlns:xlink="http://www.w3.org/1999/xlink" x="0px" y="0px"
	 viewBox="0 0 188 230" style="enable-background:new 0 0 188 230;" xml:space="preserve">
<style type="text/css">
	.st0{fill:none;stroke:#FFFFFF;stroke-width:9.75;stroke-linecap:round;stroke-linejoin:round;stroke-miterlimit:22.9256;}
</style>
<path class="st0" d="M183.1,58v159.4c0,4.3-3.7,8-8,8H13.2c-4.3,0-8-3.6-8-8V13.7c0-4.4,3.6-8,8-8h117.5"/>
<path class="st0" d="M183.1,58h-44.3c-4.4,0-8-3.6-8-8V5.7L183.1,58L183.1,58z"/>
<line class="st0" x1="35.5" y1="137.3" x2="152.7" y2="137.3"/>
<line class="st0" x1="35.5" y1="166" x2="152.7" y2="166"/>
<line class="st0" x1="35.5" y1="194.6" x2="108.8" y2="194.6"/>
<path class="st0" d="M54.5,46.3c0,11.6,8,19.7,17.9,19.7s17.9-8.1,17.9-19.7C90.4,23.7,54.5,24.4,54.5,46.3L54.5,46.3z"/>
<path class="st0" d="M35.5,108V89.7c0-10,8.2-18.1,18.1-18.1h37.5c10,0,18.1,8.2,18.1,18.1V108"/>
<line class="st0" x1="53.8" y1="108" x2="53.8" y2="93.5"/>
<line class="st0" x1="91" y1="93.5" x2="91" y2="108"/>
</svg>
