<?xml version="1.0" encoding="utf-8"?>
<!-- Generator: Adobe Illustrator 22.0.0, SVG Export Plug-In . SVG Version: 6.00 Build 0)  -->
<svg version="1.1" id="Layer_1" xmlns="http://www.w3.org/2000/svg" xmlns:xlink="http://www.w3.org/1999/xlink" x="0px" y="0px"
	 viewBox="0 0 254 252" style="enable-background:new 0 0 254 252;" xml:space="preserve">
<style type="text/css">
	.st0{fill:none;stroke:#FFFFFF;stroke-width:9.75;stroke-linecap:round;stroke-linejoin:round;stroke-miterlimit:22.9256;}
</style>
<path class="st0" d="M106.3,163.3c0,13.7,9.5,23.3,21.2,23.3c11.7,0,21.2-9.6,21.2-23.3C148.7,136.5,106.3,137.3,106.3,163.3
	L106.3,163.3z"/>
<path class="st0" d="M83.9,246.6v-24.3c0-11.8,9.6-21.4,21.4-21.4h44.3c11.8,0,21.4,9.7,21.4,21.4v24.3"/>
<line class="st0" x1="105.6" y1="247.5" x2="105.6" y2="221"/>
<line class="st0" x1="149.5" y1="221" x2="149.5" y2="247.5"/>
<path class="st0" d="M28.2,25.2C28.2,39,37.7,48.5,49.4,48.5c11.7,0,21-9.6,21.2-23.3C70.9-1.1,28.3-0.6,28.2,25.2L28.2,25.2z"/>
<path class="st0" d="M5.9,108.6V84.3c0-11.8,9.6-21.4,21.4-21.4h44.3c11.8,0,21.4,9.7,21.4,21.4v24.3"/>
<line class="st0" x1="27.5" y1="109.5" x2="27.5" y2="82.9"/>
<line class="st0" x1="71.4" y1="82.9" x2="71.4" y2="109.5"/>
<path class="st0" d="M184.4,25.2c0,13.7,9.5,23.3,21.2,23.3c11.7,0,21.2-9.6,21.2-23.3C226.8-1.5,184.4-0.7,184.4,25.2L184.4,25.2z"
	/>
<path class="st0" d="M162,108.6V86.2c0-11.8,9.6-21.4,21.4-21.4h44.3c11.8,0,21.4,9.7,21.4,21.4v22.4"/>
<line class="st0" x1="183.6" y1="109.5" x2="183.6" y2="82.9"/>
<line class="st0" x1="227.6" y1="82.9" x2="227.6" y2="109.5"/>
<path class="st0" d="M105.4,30.3c7.2-1.9,14.7-2.9,22.5-2.9c9.2,0,18,1.4,26.4,4.1"/>
<polyline class="st0" points="120.6,11.7 101.5,30.3 124.7,43.5 "/>
<path class="st0" d="M65.8,175.8c-5.2-5.3-9.9-11.3-13.8-18c-4.6-8-7.8-16.3-9.6-24.9"/>
<polyline class="st0" points="42.1,171.9 67.7,179.1 67.6,152.4 "/>
<path class="st0" d="M211.6,137.3c-1.9,7.2-4.8,14.2-8.7,21c-4.6,8-10.3,14.9-16.7,20.8"/>
<polyline class="st0" points="220.1,159.8 213.5,134 190.5,147.5 "/>
</svg>
