<?xml version="1.0" encoding="utf-8"?>
<!-- Generator: Adobe Illustrator 22.0.0, SVG Export Plug-In . SVG Version: 6.00 Build 0)  -->
<svg version="1.1" id="Layer_1" xmlns="http://www.w3.org/2000/svg" xmlns:xlink="http://www.w3.org/1999/xlink" x="0px" y="0px"
	 viewBox="0 0 37 34" style="enable-background:new 0 0 37 34;" xml:space="preserve">
<style type="text/css">
	.st0{fill:none;stroke:#FFFFFF;stroke-width:1.44;stroke-linecap:round;stroke-linejoin:round;stroke-miterlimit:22.9256;}
	.st1{fill:none;stroke:#FFFFFF;stroke-width:1.44;stroke-miterlimit:22.9256;}
</style>
<g>
	<path class="st0" d="M31.9,19.3l2.2-2.2c3.8-3.8,1.9-9-1.1-12.3c-1-1.1-2.2-2-3.4-2.7c-1.6-0.9-6.5-2.2-9.7,1l-6.7,6.6
		c-1.8,1.8,2.7,3.5,5,1.3L20,9.3c2.5-2.2,5.6,2.3,9.5-0.8"/>
	<path class="st0" d="M6,18.2L3.8,16C-3.6,8.7,9.2-4,16.7,3.3l1.5,1.5"/>
	<path class="st0" d="M23.5,10.9l8.6,9c1.7,1.8-0.8,5.3-3.1,3l-4-4.1"/>
	<path class="st0" d="M21.5,21.5l4.4,4.5c1.8,1.8,5.3-0.9,3.1-3.2l-4.3-4.5"/>
	<path class="st0" d="M20.2,26.5l2.2,2.2c1.8,1.8,5.2-0.8,3-3.1"/>
	<path class="st1" d="M11.3,16.4l0.2,0.2c0.8,0.8,0.8,2.1,0,2.9l-3.1,3.1c-0.8,0.8-2.1,0.8-2.9,0l-0.2-0.2c-0.8-0.8-0.8-2.1,0-2.9
		l3.1-3.1C9.2,15.6,10.5,15.6,11.3,16.4L11.3,16.4z M16.4,17.8l0.2,0.2c0.8,0.8,0.8,2.1,0,2.9l-4.9,4.9c-0.8,0.8-2.1,0.8-2.9,0
		l-0.2-0.2c-0.8-0.8-0.8-2.1,0-2.9l4.9-4.9C14.3,17,15.6,17,16.4,17.8L16.4,17.8z M18.4,22.4l0.2,0.2c0.8,0.8,0.8,2.1,0,2.9
		l-3.3,3.3c-0.8,0.8-2.1,0.8-2.9,0l-0.2-0.2c-0.8-0.8-0.8-2.1,0-2.9l3.3-3.3C16.3,21.6,17.6,21.6,18.4,22.4L18.4,22.4z M20.5,26.7
		l0.2,0.2c0.8,0.8,0.8,2.1,0,2.9l-2,2c-0.8,0.8-2.1,0.8-2.9,0l-0.2-0.2c-0.8-0.8-0.8-2.1,0-2.9l2-2C18.4,25.9,19.7,25.9,20.5,26.7
		L20.5,26.7z"/>
</g>
</svg>
