<?xml version="1.0" encoding="utf-8"?>
<!-- Generator: Adobe Illustrator 22.0.0, SVG Export Plug-In . SVG Version: 6.00 Build 0)  -->
<svg version="1.1" id="Layer_1" xmlns="http://www.w3.org/2000/svg" xmlns:xlink="http://www.w3.org/1999/xlink" x="0px" y="0px"
	 viewBox="0 0 142 142" style="enable-background:new 0 0 142 142;" xml:space="preserve">
<style type="text/css">
	.st0{fill:#006A8E;}
</style>
<path class="st0" d="M140.2,12L115.4,0.5c-0.4-0.2-0.9-0.3-1.3-0.3H4c-1.8,0-3.2,1.4-3.2,3.2v19.3C0.8,24.5,2.2,26,4,26h11v10.3
	c0,1.8,1.4,3.2,3.2,3.2c1.8,0,3.2-1.4,3.2-3.2V26h7.8v86.7H16.5c-0.8,0-1.7,0.3-2.3,0.9L1.7,126c-0.6,0.6-0.9,1.4-0.9,2.3v10
	c0,1.8,1.4,3.2,3.2,3.2h76.1c1.8,0,3.2-1.4,3.2-3.2v-10c0-0.8-0.3-1.7-0.9-2.3l-12.5-12.5c-0.6-0.6-1.4-0.9-2.3-0.9H54.9V48H71
	c1.8,0,3.2-1.4,3.2-3.2V26h28.9v22.5c0,6.9,3.9,9.8,6.7,11.9c2.5,1.9,3.6,2.8,3.6,5.4c0,3.9-3.2,7.1-7.1,7.1c-3.9,0-7.1-3.2-7.1-7.1
	c0-1.8-1.4-3.2-3.2-3.2c-1.8,0-3.2,1.4-3.2,3.2c0,7.5,6.1,13.5,13.5,13.5c7.5,0,13.5-6.1,13.5-13.5c0-6-3.6-8.6-6.2-10.5
	c-2.5-1.8-4.1-3-4.1-6.7V26h29.4c1.8,0,3.2-1.4,3.2-3.2v-7.9C142.1,13.6,141.4,12.5,140.2,12z M76.9,129.6v5.5H7.2v-5.5L17.8,119
	h48.6L76.9,129.6z M35.6,112.7V26.2h12.9v86.5H35.6z M67.8,41.7H54.9V26.2h12.9V41.7z M135.7,19.6H7.2V6.6h106.2l22.4,10.3V19.6z"/>
</svg>
