<?xml version="1.0" encoding="utf-8"?>
<!-- Generator: Adobe Illustrator 22.0.0, SVG Export Plug-In . SVG Version: 6.00 Build 0)  -->
<svg version="1.1" id="Layer_1" xmlns="http://www.w3.org/2000/svg" xmlns:xlink="http://www.w3.org/1999/xlink" x="0px" y="0px"
	 viewBox="0 0 500 250" style="enable-background:new 0 0 500 250;" xml:space="preserve">
<style type="text/css">
	.st0{fill:#6BAA00;}
	.st1{fill:#C2E600;}
	.st2{fill:#FFFFFF;}
</style>
<g>
	<g>
		<path class="st0" d="M363.6,49.3c1.7-1.7,1.7-4.3,0-6c-1.7-1.7-4.3-1.7-6,0l-40.1,40.1c-0.2-3.6-0.3-11.4,1-20.8
			c2.4-16.9,8.7-30.9,18.1-40.2C346,13,359.9,6.8,376.9,4.3c12.6-1.8,22.4-0.9,22.8-0.9c2,0.2,3.6,1.8,3.8,3.8
			c0,0.4,0.9,10.2-0.9,22.8c-2.4,16.9-8.7,30.9-18.1,40.2c-9.4,9.4-23.3,15.6-40.2,18.1c-6.2,0.9-11.8,1.1-15.9,1.1
			c-2.1,0-3.7-0.1-4.9-0.1L363.6,49.3z"/>
		<path class="st1" d="M265.3,32.8c0.2-2,1.8-3.6,3.8-3.8c1.1-0.1,27.8-2.5,43.4,13.1c0.6,0.6,1.2,1.2,1.7,1.9
			c-1.8,5.4-3.2,11.3-4.1,17.5c-0.3,2-0.5,3.9-0.7,5.7l-11-11c-1.7-1.7-4.3-1.7-6,0c-1.7,1.7-1.7,4.3,0,6L309,78.6
			c0,4.3,0.2,7.1,0.3,7.7c0.1,1,0.3,1.9,0.6,2.9c-9.4-0.9-22.3-3.8-31.5-13C262.9,60.6,265.2,33.9,265.3,32.8z"/>
	</g>
	<g>
		<path class="st2" d="M35.6,195.4L0.5,106.8h13.9l28.2,74.9l28.1-74.9H84l-34.8,88.5H35.6z"/>
		<path class="st2" d="M106,81.5c0,5.2-3.7,9.1-8.6,9.1s-8.6-3.9-8.6-9.1s3.7-9.1,8.6-9.1S106,76.3,106,81.5z M91,195.4v-88.5H104
			v88.5H91z"/>
		<path class="st2" d="M147.3,195.4l-35.1-88.5h13.9l28.2,74.9l28.1-74.9h13.3l-34.8,88.5H147.3z"/>
		<path class="st2" d="M255.5,181.8c-7.1,9.6-18.3,14.3-32.4,14.3c-18.3,0-30.1-11.8-30.1-27c0-15.5,12.3-25.2,33.1-25.4h29.1v-5.2
			c0-12.9-8.1-20.7-23.7-20.7c-9.7,0-18.8,3.7-28.1,10.1l-5.5-9.6c11.4-7.6,21-11.9,36.1-11.9c21.8,0,33.9,11.6,34.1,30.6l0.2,58.5
			h-12.8V181.8z M255.3,164.8v-10.6h-27.6c-14.8,0-22.5,4.5-22.5,14.3s7.9,16.1,20.3,16.1C240.6,184.6,252,177.1,255.3,164.8z"/>
		<rect x="310.2" y="106.8" class="st2" width="12.9" height="88.5"/>
		<path class="st2" d="M393.7,114.4l-5,10.4c-6.9-4.4-15.8-7.2-24-7.2c-9.9,0-17.5,3.5-17.5,11.8c0,19.7,49.4,9.6,49.4,41.3
			c0,17.5-15.5,25.2-32.4,25.2c-12.6,0-25.5-4.4-33.9-12.4l5-9.9c7.6,7.1,19,11.3,29.4,11.3c10.4,0,18.8-3.9,19-12.6
			c0.5-21.3-49.1-10.4-48.9-41.8c0-17,14.6-24,30.7-24C376,106.3,386.3,109.4,393.7,114.4z"/>
		<path class="st2" d="M403.8,195.4V70.7h13.1v124.7H403.8z"/>
		<path class="st2" d="M487.7,181.8c-7.1,9.6-18.3,14.3-32.4,14.3c-18.3,0-30.1-11.8-30.1-27c0-15.5,12.3-25.2,33.1-25.4h29.1v-5.2
			c0-12.9-8.1-20.7-23.7-20.7c-9.7,0-18.8,3.7-28.1,10.1l-5.5-9.6c11.4-7.6,21-11.9,36.1-11.9c21.8,0,33.9,11.6,34.1,30.6l0.2,58.5
			h-12.8V181.8z M487.6,164.8v-10.6H460c-14.8,0-22.5,4.5-22.5,14.3s7.9,16.1,20.3,16.1C472.8,184.6,484.2,177.1,487.6,164.8z"/>
	</g>
	<g>
		<path class="st2" d="M11.3,232.9c-0.5,0-1.1,0.1-1.6,0.1H3.3v7.6H0.5v-24.2h9.2c6,0,9.5,3,9.5,8.1c0,4-1.9,6.7-5.4,7.8l5.7,8.2
			h-3.1L11.3,232.9z M9.7,230.4c4.4,0,6.9-1.9,6.9-5.7c0-3.7-2.5-5.5-6.9-5.5H3.3v11.2H9.7z"/>
		<path class="st2" d="M40.7,232.6H25.9c0.5,3.6,3.1,5.8,6.6,5.8c2.2,0,4.2-0.8,5.6-2.3l1.5,1.6c-1.7,1.9-4.3,3-7.3,3
			c-5.3,0-9-3.8-9-9.2c0-5.4,3.7-9.2,9-9.2C38.1,222.4,41,226.4,40.7,232.6z M38.3,230.4c-0.2-3.5-2.5-5.7-6.1-5.7
			c-3.4,0-5.9,2.2-6.3,5.7H38.3z"/>
		<path class="st2" d="M56.6,237.8c-1.4,2-3.8,2.9-6.7,2.9c-3.8,0-6.2-2.4-6.2-5.6c0-3.2,2.5-5.2,6.8-5.2h6v-1.1
			c0-2.7-1.7-4.2-4.9-4.2c-2,0-3.9,0.8-5.8,2.1l-1.1-2c2.3-1.6,4.3-2.4,7.4-2.4c4.5,0,7,2.4,7,6.3l0,12h-2.6V237.8z M56.6,234.4
			v-2.2h-5.7c-3,0-4.6,0.9-4.6,2.9c0,2,1.6,3.3,4.2,3.3C53.6,238.4,55.9,236.9,56.6,234.4z"/>
		<path class="st2" d="M65.4,240.6V215h2.7v25.6H65.4z"/>
		<path class="st2" d="M87.4,219.1v7.9h12.2v2.7H87.4v8.3h14.1v2.6H84.7v-24.2h16.4v2.7H87.4z"/>
		<path class="st2" d="M117.4,224l-1,2.1c-1.4-0.9-3.2-1.5-4.9-1.5c-2,0-3.6,0.7-3.6,2.4c0,4,10.1,2,10.1,8.5c0,3.6-3.2,5.2-6.7,5.2
			c-2.6,0-5.2-0.9-7-2.6l1-2c1.6,1.4,3.9,2.3,6,2.3s3.9-0.8,3.9-2.6c0.1-4.4-10.1-2.1-10-8.6c0-3.5,3-4.9,6.3-4.9
			C113.8,222.4,115.9,223,117.4,224z"/>
		<path class="st2" d="M131.8,239.4c-1.3,0.9-2.7,1.3-4.1,1.4c-2.7,0-4.6-1.6-4.6-5.2v-10.4h-2.6V223h2.6v-4.8h2.7v4.8l5.8,0v2.2
			h-5.8v9.9c0,2.2,0.9,3,2.4,3c0.9,0,1.9-0.3,2.9-0.9L131.8,239.4z"/>
		<path class="st2" d="M147.1,237.8c-1.4,2-3.8,2.9-6.7,2.9c-3.8,0-6.2-2.4-6.2-5.6c0-3.2,2.5-5.2,6.8-5.2h6v-1.1
			c0-2.7-1.7-4.2-4.9-4.2c-2,0-3.9,0.8-5.8,2.1l-1.1-2c2.3-1.6,4.3-2.4,7.4-2.4c4.5,0,7,2.4,7,6.3l0,12h-2.6V237.8z M147.1,234.4
			v-2.2h-5.7c-3,0-4.6,0.9-4.6,2.9c0,2,1.6,3.3,4.2,3.3C144.1,238.4,146.4,236.9,147.1,234.4z"/>
		<path class="st2" d="M165.1,239.4c-1.3,0.9-2.7,1.3-4.1,1.4c-2.7,0-4.6-1.6-4.6-5.2v-10.4h-2.6V223h2.6v-4.8h2.7v4.8l5.8,0v2.2
			h-5.8v9.9c0,2.2,0.9,3,2.4,3c0.9,0,1.9-0.3,2.9-0.9L165.1,239.4z"/>
		<path class="st2" d="M184.6,232.6h-14.8c0.5,3.6,3.1,5.8,6.6,5.8c2.2,0,4.2-0.8,5.6-2.3l1.5,1.6c-1.7,1.9-4.3,3-7.3,3
			c-5.3,0-9-3.8-9-9.2c0-5.4,3.7-9.2,9-9.2C182,222.4,184.9,226.4,184.6,232.6z M182.2,230.4c-0.2-3.5-2.5-5.7-6.1-5.7
			c-3.4,0-5.9,2.2-6.3,5.7H182.2z"/>
		<path class="st2" d="M210,237.8c-1.4,2-3.8,2.9-6.7,2.9c-3.8,0-6.2-2.4-6.2-5.6c0-3.2,2.5-5.2,6.8-5.2h6v-1.1
			c0-2.7-1.7-4.2-4.9-4.2c-2,0-3.9,0.8-5.8,2.1l-1.1-2c2.3-1.6,4.3-2.4,7.4-2.4c4.5,0,7,2.4,7,6.3l0,12H210V237.8z M209.9,234.4
			v-2.2h-5.7c-3,0-4.6,0.9-4.6,2.9c0,2,1.6,3.3,4.2,3.3C206.9,238.4,209.2,236.9,209.9,234.4z"/>
		<path class="st2" d="M235.2,229.4v11.2h-2.7v-10.5c0-3.2-1.9-5.1-5.1-5.1c-3.6,0-5.8,2.4-6.1,5.8v9.8h-2.7v-18.2h2.7v4
			c1.3-2.8,3.7-4.1,7-4.1C232.7,222.4,235.2,225,235.2,229.4z"/>
		<path class="st2" d="M257.9,240.6h-2.7v-3.9c-1.3,2.6-3.8,4-7.1,4c-5.2,0-8.8-3.8-8.8-9.2c0-5.5,3.6-9.2,8.7-9.2
			c3.2,0,5.8,1.5,7.1,4.1V215h2.7V240.6z M255.2,231.6c0-4-2.7-6.8-6.6-6.8c-3.9,0-6.6,2.9-6.6,6.8c0,3.9,2.7,6.8,6.6,6.8
			C252.5,238.4,255.2,235.5,255.2,231.6z"/>
		<path class="st2" d="M284.3,216.5c7,0,12.4,5.2,12.4,12.1c0,6.9-5.4,12.1-12.5,12.1h-9.7v-24.2H284.3z M277.3,238h7
			c5.4,0,9.6-4,9.6-9.4c0-5.4-4.3-9.5-9.7-9.5h-6.9V238z"/>
		<path class="st2" d="M317,232.6h-14.8c0.5,3.6,3.1,5.8,6.6,5.8c2.2,0,4.2-0.8,5.6-2.3l1.5,1.6c-1.7,1.9-4.3,3-7.3,3
			c-5.3,0-9-3.8-9-9.2c0-5.4,3.7-9.2,9-9.2C314.4,222.4,317.3,226.4,317,232.6z M314.6,230.4c-0.2-3.5-2.5-5.7-6.1-5.7
			c-3.4,0-5.9,2.2-6.3,5.7H314.6z"/>
		<path class="st2" d="M325.1,240.6l-7.2-18.2h2.9l5.8,15.4l5.8-15.4h2.7l-7.1,18.2H325.1z"/>
		<path class="st2" d="M353.3,232.6h-14.8c0.5,3.6,3.1,5.8,6.6,5.8c2.2,0,4.2-0.8,5.6-2.3l1.5,1.6c-1.7,1.9-4.3,3-7.3,3
			c-5.3,0-9-3.8-9-9.2c0-5.4,3.7-9.2,9-9.2C350.7,222.4,353.6,226.4,353.3,232.6z M350.9,230.4c-0.2-3.5-2.5-5.7-6.1-5.7
			c-3.4,0-5.9,2.2-6.3,5.7H350.9z"/>
		<path class="st2" d="M358.1,240.6V215h2.7v25.6H358.1z"/>
		<path class="st2" d="M384.1,231.5c0,5.5-3.8,9.2-9.2,9.2c-5.4,0-9.2-3.8-9.2-9.2c0-5.4,3.8-9.1,9.2-9.1
			C380.3,222.4,384.1,226.1,384.1,231.5z M368.4,231.6c0,4,2.7,6.8,6.5,6.8c3.8,0,6.5-2.8,6.5-6.8c0-4-2.7-6.7-6.5-6.7
			C371.1,224.8,368.4,227.6,368.4,231.6z"/>
		<path class="st2" d="M407.4,231.6c0,5.4-3.5,9.1-8.7,9.1c-3.2,0-5.7-1.5-7.1-4v10.6H389v-24.9h2.7v3.9c1.3-2.6,3.8-4,7-4
			C403.8,222.4,407.4,226.1,407.4,231.6z M404.7,231.5c0-3.9-2.7-6.8-6.5-6.8c-3.8,0-6.5,2.8-6.5,6.8c0,4,2.7,6.8,6.5,6.8
			C402,238.3,404.7,235.5,404.7,231.5z"/>
		<path class="st2" d="M442.2,229.4v11.2h-2.7v-10.5c0-3.2-1.9-5.1-5-5.1c-3.8,0.1-5.9,2.8-5.9,6.7v8.9h-2.7v-10.5
			c0-3.2-1.9-5.1-5-5.1c-3.7,0.1-6,2.8-6,6.7v8.9h-2.7v-18.2h2.7v4.1c1.2-2.8,3.7-4.2,6.9-4.2c3.4,0,5.8,1.8,6.5,4.8
			c1.1-3.2,3.7-4.7,7.2-4.8C439.7,222.4,442.2,225,442.2,229.4z"/>
		<path class="st2" d="M463.9,232.6H449c0.5,3.6,3.1,5.8,6.6,5.8c2.2,0,4.2-0.8,5.6-2.3l1.5,1.6c-1.7,1.9-4.3,3-7.3,3
			c-5.3,0-9-3.8-9-9.2c0-5.4,3.7-9.2,9-9.2C461.2,222.4,464.1,226.4,463.9,232.6z M461.4,230.4c-0.2-3.5-2.5-5.7-6.1-5.7
			c-3.4,0-5.9,2.2-6.3,5.7H461.4z"/>
		<path class="st2" d="M485.1,229.4v11.2h-2.7v-10.5c0-3.2-1.9-5.1-5.1-5.1c-3.6,0-5.8,2.4-6.1,5.8v9.8h-2.7v-18.2h2.7v4
			c1.3-2.8,3.7-4.1,7-4.1C482.6,222.4,485.1,225,485.1,229.4z"/>
		<path class="st2" d="M500.5,239.4c-1.3,0.9-2.7,1.3-4.1,1.4c-2.7,0-4.6-1.6-4.6-5.2v-10.4h-2.6V223h2.6v-4.8h2.7v4.8l5.8,0v2.2
			h-5.8v9.9c0,2.2,0.9,3,2.4,3c0.9,0,1.9-0.3,2.9-0.9L500.5,239.4z"/>
	</g>
</g>
</svg>
